<svg xmlns="http://www.w3.org/2000/svg" version="1.1" xmlns:xlink="http://www.w3.org/1999/xlink" xmlns:svgjs="http://svgjs.dev/svgjs" width="2000" height="1070" viewBox="0 0 2000 1070"><g transform="matrix(1,0,0,1,-1.2121049794561713,-0.4037046554998369)"><svg viewBox="0 0 396 212" data-background-color="#ffffff" preserveAspectRatio="xMidYMid meet" height="1070" width="2000" xmlns="http://www.w3.org/2000/svg" xmlns:xlink="http://www.w3.org/1999/xlink"><g id="tight-bounds" transform="matrix(1,0,0,1,0.24000343840600635,0.07998634295884699)"><svg viewBox="0 0 395.52 211.8400273140823" height="211.8400273140823" width="395.52"><g><svg viewBox="0 0 395.52 211.8400273140823" height="211.8400273140823" width="395.52"><g><svg viewBox="0 0 395.52 211.8400273140823" height="211.8400273140823" width="395.52"><g><svg viewBox="0 0 395.52 211.8400273140823" height="211.8400273140823" width="395.52"><g transform="matrix(1,0,0,1,0,130.92563548050592)"><svg viewBox="0 0 395.52 80.91439183357637" height="80.91439183357637" width="395.52"><g id="textblocktransform"><svg viewBox="0 0 395.52 80.91439183357637" height="80.91439183357637" width="395.52" id="textblock"><g><svg viewBox="0 0 395.52 80.91439183357637" height="80.91439183357637" width="395.52"><g transform="matrix(1,0,0,1,0,0)"><svg width="395.52" viewBox="2.1911805611129997 -35.55 234.35881943888702 47.949999999999996" height="80.91439183357637" data-palette-color="#b49062"><path d="M13.38 0.59L13.38 0.59Q10.28 0.59 8.24 0.02 6.2-0.54 4.97-1.38 3.74-2.22 3.08-3.05L3.08-3.05Q2.86-3.37 2.69-3.66 2.51-3.96 2.44-4.32L2.44-4.32Q2.34-4.81 2.25-5.6 2.15-6.4 2.22-7.45L2.22-7.45Q2.25-7.89 2.39-8.06L2.39-8.06Q2.56-8.25 2.95-8.35L2.95-8.35Q3.66-8.52 4.8-8.65 5.93-8.79 6.42-8.79L6.42-8.79Q6.93-8.79 7.25-8.59 7.57-8.4 8.01-7.93L8.01-7.93Q8.5-7.42 9.69-6.63 10.89-5.83 13.38-5.83L13.38-5.83Q15.77-5.83 16.99-6.84 18.21-7.84 18.21-9.62L18.21-9.62Q18.21-10.57 17.64-11.41 17.07-12.26 15.55-13.1 14.04-13.94 11.23-14.87L11.23-14.87Q6.59-16.43 4.54-18.75 2.49-21.07 2.49-25.2L2.49-25.2Q2.49-28.61 4.15-30.91 5.81-33.2 8.74-34.38 11.67-35.55 15.5-35.55L15.5-35.55Q18.46-35.55 20.4-34.85 22.34-34.16 23.41-33.29 24.49-32.42 24.8-31.88L24.8-31.88Q25-31.57 25.06-31.41 25.12-31.25 25.15-30.98L25.15-30.98Q25.22-30.22 25.2-29.3 25.17-28.37 25.02-27.2L25.02-27.2Q24.95-26.81 24.76-26.66L24.76-26.66Q24.58-26.54 24.22-26.54L24.22-26.54Q21.85-26.49 20.56-26.78L20.56-26.78Q20.04-26.9 19.87-27.03 19.7-27.15 19.43-27.42L19.43-27.42Q19.04-27.88 18.2-28.5 17.36-29.13 15.5-29.13L15.5-29.13Q12.94-29.13 11.87-27.97 10.79-26.81 10.79-25.37L10.79-25.37Q10.79-23.66 12.38-22.69 13.96-21.73 17.38-20.51L17.38-20.51Q20.24-19.51 22.29-18.33 24.34-17.16 25.43-15.33 26.51-13.5 26.51-10.5L26.51-10.5Q26.51-6.76 24.79-4.3 23.07-1.83 20.1-0.62 17.14 0.59 13.38 0.59ZM56.17-15.55L56.17-15.55 56.17-1.29Q56.17-0.56 55.87-0.28 55.56 0 54.83 0L54.83 0 49.8 0Q49.07 0 48.76-0.28 48.46-0.56 48.46-1.29L48.46-1.29 48.46-14.28Q48.46-16.94 47.34-18.16 46.21-19.38 44.28-19.38L44.28-19.38Q42.36-19.38 41.32-18.55 40.28-17.72 39.72-16.46L39.72-16.46 39.72-1.29Q39.72-0.56 39.41-0.28 39.11 0 38.38 0L38.38 0 33.35 0Q32.61 0 32.31-0.28 32-0.56 32-1.29L32-1.29 32-21.75Q32-22.34 32.25-22.66L32.25-22.66Q32.76-23.34 33.48-24.05 34.2-24.76 35.25-25.56L35.25-25.56Q35.57-25.81 35.86-25.81L35.86-25.81Q36.13-25.81 36.47-25.56L36.47-25.56Q37.5-24.76 38.23-24.02 38.96-23.29 39.52-22.51L39.52-22.51 39.65-22.51Q40.06-23.05 40.89-23.77 41.72-24.49 43.22-25.05 44.72-25.61 47.07-25.61L47.07-25.61Q49.36-25.61 51.44-24.68 53.51-23.75 54.84-21.56 56.17-19.36 56.17-15.55ZM69.23 0.61L69.23 0.61Q65.64 0.61 63.53-1.4 61.42-3.42 61.42-6.96L61.42-6.96Q61.42-8.79 62.09-10.36 62.76-11.94 64.44-13.15 66.11-14.36 69.12-15.09 72.14-15.82 76.83-15.94L76.83-15.94Q76.83-18.16 75.72-19.14 74.6-20.12 72.38-20.12L72.38-20.12Q70.38-20.12 69.11-19.43 67.84-18.75 67.52-18.51L67.52-18.51Q67.18-18.21 66.69-18.29L66.69-18.29Q66.04-18.38 65.29-18.63 64.55-18.87 63.69-19.19L63.69-19.19Q63.57-19.24 63.42-19.35 63.28-19.46 63.25-19.68L63.25-19.68Q63.25-19.8 63.28-19.98 63.3-20.17 63.4-20.65L63.4-20.65Q63.5-21.14 63.69-21.86 63.89-22.58 64.06-22.97L64.06-22.97Q64.28-23.39 64.79-23.75L64.79-23.75Q65.2-24.1 67.3-24.85 69.4-25.61 73.38-25.61L73.38-25.61Q84.35-25.61 84.35-14.94L84.35-14.94 84.35-1.12Q84.35-0.66 84.09-0.33 83.83 0 83.22 0L83.22 0 79.56 0Q79.17 0 78.86-0.11 78.56-0.22 78.29-0.54L78.29-0.54 76.78-2.49 76.61-2.49Q75.48-0.85 73.59-0.12 71.7 0.61 69.23 0.61ZM71.92-5.05L71.92-5.05Q74.16-5.05 75.31-6.2 76.46-7.35 76.78-8.57L76.78-8.57 76.78-11.28Q73.38-11.28 71.69-10.75 69.99-10.23 69.43-9.39 68.87-8.54 68.87-7.57L68.87-7.57Q68.87-6.15 69.75-5.6 70.62-5.05 71.92-5.05ZM106.49-25.61L106.49-25.61Q110.05-25.61 112.36-24.01 114.67-22.41 115.8-19.62 116.94-16.82 116.94-13.21L116.94-13.21Q116.94-9.3 115.61-6.18 114.27-3.05 111.69-1.22 109.1 0.61 105.27 0.61L105.27 0.61Q103.29 0.61 102.01 0.16 100.72-0.29 99.96-0.92 99.19-1.54 98.75-2.05L98.75-2.05 98.65-2.05 98.65 8.35Q98.65 8.94 98.41 9.25L98.41 9.25Q97.38 10.6 95.4 12.16L95.4 12.16Q95.06 12.4 94.79 12.4L94.79 12.4Q94.5 12.4 94.18 12.16L94.18 12.16Q93.13 11.35 92.41 10.64 91.69 9.94 91.18 9.25L91.18 9.25Q90.93 8.94 90.93 8.35L90.93 8.35 90.93-21.75Q90.93-22.34 91.18-22.66L91.18-22.66Q91.69-23.34 92.41-24.05 93.13-24.76 94.18-25.56L94.18-25.56Q94.5-25.81 94.84-25.81L94.84-25.81Q95.16-25.81 95.5-25.56L95.5-25.56Q96.53-24.76 97.26-24.02 97.99-23.29 98.55-22.51L98.55-22.51 98.67-22.51Q99.09-23.02 99.94-23.75 100.8-24.49 102.37-25.05 103.95-25.61 106.49-25.61ZM103.48-5.62L103.48-5.62Q106.12-5.62 107.57-7.46 109.03-9.3 109.03-12.79L109.03-12.79Q109.03-19.38 103.61-19.38L103.61-19.38Q101.31-19.38 100.21-18.44 99.11-17.5 98.65-16.46L98.65-16.46 98.65-11.16Q98.65-8.79 99.87-7.2 101.09-5.62 103.48-5.62ZM146.06 0.59L146.06 0.59Q142.96 0.59 140.92 0.02 138.88-0.54 137.65-1.38 136.41-2.22 135.75-3.05L135.75-3.05Q135.53-3.37 135.36-3.66 135.19-3.96 135.12-4.32L135.12-4.32Q135.02-4.81 134.92-5.6 134.83-6.4 134.9-7.45L134.9-7.45Q134.92-7.89 135.07-8.06L135.07-8.06Q135.24-8.25 135.63-8.35L135.63-8.35Q136.34-8.52 137.48-8.65 138.61-8.79 139.1-8.79L139.1-8.79Q139.61-8.79 139.93-8.59 140.25-8.4 140.69-7.93L140.69-7.93Q141.17-7.42 142.37-6.63 143.57-5.83 146.06-5.83L146.06-5.83Q148.45-5.83 149.67-6.84 150.89-7.84 150.89-9.62L150.89-9.62Q150.89-10.57 150.32-11.41 149.74-12.26 148.23-13.1 146.72-13.94 143.91-14.87L143.91-14.87Q139.27-16.43 137.22-18.75 135.17-21.07 135.17-25.2L135.17-25.2Q135.17-28.61 136.83-30.91 138.49-33.2 141.42-34.38 144.35-35.55 148.18-35.55L148.18-35.55Q151.13-35.55 153.08-34.85 155.02-34.16 156.09-33.29 157.17-32.42 157.48-31.88L157.48-31.88Q157.68-31.57 157.74-31.41 157.8-31.25 157.82-30.98L157.82-30.98Q157.9-30.22 157.87-29.3 157.85-28.37 157.7-27.2L157.7-27.2Q157.63-26.81 157.43-26.66L157.43-26.66Q157.26-26.54 156.9-26.54L156.9-26.54Q154.53-26.49 153.23-26.78L153.23-26.78Q152.72-26.9 152.55-27.03 152.38-27.15 152.11-27.42L152.11-27.42Q151.72-27.88 150.88-28.5 150.04-29.13 148.18-29.13L148.18-29.13Q145.62-29.13 144.54-27.97 143.47-26.81 143.47-25.37L143.47-25.37Q143.47-23.66 145.06-22.69 146.64-21.73 150.06-20.51L150.06-20.51Q152.92-19.51 154.97-18.33 157.02-17.16 158.11-15.33 159.19-13.5 159.19-10.5L159.19-10.5Q159.19-6.76 157.47-4.3 155.75-1.83 152.78-0.62 149.82 0.59 146.06 0.59ZM174.57 0.61L174.57 0.61Q166.42 0.61 166.42-7.86L166.42-7.86 166.42-19.31 163.66-19.31Q162.92-19.31 162.64-19.62 162.36-19.92 162.36-20.65L162.36-20.65 162.36-23.66Q162.36-24.39 162.64-24.69 162.92-25 163.66-25L163.66-25 166.42-25 166.42-28.93Q166.42-29.52 166.66-29.83L166.66-29.83Q167.69-31.18 169.66-32.74L169.66-32.74Q170-32.98 170.27-32.98L170.27-32.98Q170.57-32.98 170.86-32.74L170.86-32.74Q171.91-31.93 172.63-31.23 173.35-30.52 173.86-29.83L173.86-29.83Q174.11-29.52 174.11-28.93L174.11-28.93 174.11-25 178.43-25Q179.16-25 179.44-24.69 179.72-24.39 179.72-23.66L179.72-23.66 179.72-20.65Q179.72-19.92 179.44-19.62 179.16-19.31 178.43-19.31L178.43-19.31 174.11-19.31 174.11-9.2Q174.11-5.3 176.94-5.3L176.94-5.3Q177.38-5.3 177.74-5.38 178.11-5.47 178.38-5.57L178.38-5.57Q178.89-5.76 179.1-5.71 179.31-5.66 179.48-5.18L179.48-5.18 180.89-1.39Q181.11-0.78 180.6-0.51L180.6-0.51Q180.23-0.34 178.83 0.13 177.43 0.61 174.57 0.61ZM191.44 0.61L191.44 0.61Q187.85 0.61 185.74-1.4 183.63-3.42 183.63-6.96L183.63-6.96Q183.63-8.79 184.3-10.36 184.97-11.94 186.64-13.15 188.31-14.36 191.33-15.09 194.34-15.82 199.03-15.94L199.03-15.94Q199.03-18.16 197.92-19.14 196.81-20.12 194.59-20.12L194.59-20.12Q192.59-20.12 191.32-19.43 190.05-18.75 189.73-18.51L189.73-18.51Q189.39-18.21 188.9-18.29L188.9-18.29Q188.24-18.38 187.49-18.63 186.75-18.87 185.9-19.19L185.9-19.19Q185.77-19.24 185.63-19.35 185.48-19.46 185.46-19.68L185.46-19.68Q185.46-19.8 185.48-19.98 185.5-20.17 185.6-20.65L185.6-20.65Q185.7-21.14 185.9-21.86 186.09-22.58 186.26-22.97L186.26-22.97Q186.48-23.39 186.99-23.75L186.99-23.75Q187.41-24.1 189.51-24.85 191.61-25.61 195.59-25.61L195.59-25.61Q206.55-25.61 206.55-14.94L206.55-14.94 206.55-1.12Q206.55-0.66 206.29-0.33 206.04 0 205.43 0L205.43 0 201.76 0Q201.37 0 201.07-0.11 200.76-0.22 200.5-0.54L200.5-0.54 198.98-2.49 198.81-2.49Q197.69-0.85 195.8-0.12 193.9 0.61 191.44 0.61ZM194.12-5.05L194.12-5.05Q196.37-5.05 197.52-6.2 198.66-7.35 198.98-8.57L198.98-8.57 198.98-11.28Q195.59-11.28 193.89-10.75 192.19-10.23 191.63-9.39 191.07-8.54 191.07-7.57L191.07-7.57Q191.07-6.15 191.95-5.6 192.83-5.05 194.12-5.05ZM213.92 11.74L213.92 11.74Q213.02 11.74 212.55 11.56 212.09 11.38 211.77 11.11L211.77 11.11Q211.14 10.5 210.4 9.4L210.4 9.4Q210.23 9.13 210.04 8.78 209.84 8.42 209.84 8.18L209.84 8.18Q209.84 7.91 209.97 7.69 210.09 7.47 210.26 7.28L210.26 7.28Q210.65 6.76 211.21 6.21 211.77 5.66 212.16 5.35L212.16 5.35Q212.43 5.13 212.6 5.07 212.77 5 212.9 5L212.9 5Q213.02 5 213.26 5.05 213.51 5.1 213.99 5.1L213.99 5.1Q215.68 5.1 217.51 4 219.34 2.91 221.12-0.12L221.12-0.12Q219.27-1.83 217.47-4.41 215.68-6.98 214.24-10 212.8-13.01 211.93-16.02 211.06-19.02 211.06-21.56L211.06-21.56Q211.06-22.09 211.33-22.41L211.33-22.41Q212.46-23.8 214.53-25.32L214.53-25.32Q214.9-25.56 215.19-25.56L215.19-25.56Q215.51-25.56 215.85-25.32L215.85-25.32Q216.97-24.51 217.74-23.8 218.51-23.1 219.05-22.41L219.05-22.41Q219.32-22.09 219.32-21.51L219.32-21.51 219.32-21.61Q219.32-19.68 219.78-17.53 220.24-15.38 221.05-13.34 221.86-11.3 222.86-9.66 223.86-8.01 224.93-7.03L224.93-7.03 225.05-7.03Q225.54-7.96 226.14-9.7 226.74-11.45 227.27-13.59 227.81-15.72 228.15-17.83 228.5-19.95 228.5-21.58L228.5-21.58 228.5-21.51Q228.5-22.09 228.74-22.41L228.74-22.41Q229.3-23.1 230.06-23.8 230.81-24.51 231.89-25.32L231.89-25.32Q232.23-25.56 232.52-25.56L232.52-25.56Q232.87-25.56 233.16-25.32L233.16-25.32Q234.26-24.51 235.01-23.8 235.77-23.1 236.31-22.41L236.31-22.41Q236.55-22.09 236.55-21.53L236.55-21.53Q236.53-19.31 235.7-15.73 234.87-12.16 233.28-7.98 231.69-3.81 229.42 0.2L229.42 0.2Q226.03 6.23 222.1 8.98 218.17 11.74 213.92 11.74ZM236.55-21.58L236.55-21.58 236.55-21.51 236.55-21.53Q236.55-21.56 236.55-21.58ZM211.06-21.51L211.06-21.58 211.06-21.56 211.06-21.51Z" opacity="1" transform="matrix(1,0,0,1,0,0)" fill="#b49062" class="wordmark-text-0" data-fill-palette-color="primary" id="text-0"></path></svg></g></svg></g></svg></g></svg></g><g transform="matrix(1,0,0,1,123.21087365733163,0)"><svg viewBox="0 0 149.09825268533672 111.82368951400255" height="111.82368951400255" width="149.09825268533672"><g><svg xmlns="http://www.w3.org/2000/svg" xmlns:xlink="http://www.w3.org/1999/xlink" version="1.0" x="0" y="0" viewBox="9 19 68 51" enable-background="new 0 0 90 90" xml:space="preserve" height="111.82368951400255" width="149.09825268533672" class="icon-icon-0" data-fill-palette-color="accent" id="icon-0"><path d="M69.5 28C72 28 74 26 74 23.5S72 19 69.5 19 65 21 65 23.5 67 28 69.5 28M69.5 20C71.4 20 73 21.6 73 23.5S71.4 27 69.5 27 66 25.4 66 23.5 67.6 20 69.5 20M13.3 56.5C14 56.2 14.7 56 15.5 56S17 56.3 17.7 56.5C18.3 56.7 18.9 57 19.5 57 19.8 57 20 57.2 20 57.5S19.8 58 19.5 58C18.6 58 18 57.7 17.3 57.5 16.7 57.3 16.2 57 15.5 57S14.3 57.2 13.7 57.5C13 57.7 12.3 58 11.5 58 11.2 58 11 57.8 11 57.5S11.2 57 11.5 57C12.1 57 12.7 56.8 13.3 56.5M14 53.5C14 53.8 13.8 54 13.5 54 12.8 54 12.3 54.2 11.7 54.5 11 54.7 10.3 55 9.5 55 9.2 55 9 54.8 9 54.5S9.2 54 9.5 54C10.1 54 10.7 53.8 11.3 53.5 12 53.2 12.7 53 13.5 53 13.8 53 14 53.2 14 53.5M11.3 61.5C10.7 61.3 10.2 61 9.5 61 9.2 61 9 60.8 9 60.5S9.2 60 9.5 60C10.3 60 11 60.3 11.7 60.5 12.3 60.7 12.9 61 13.5 61S14.7 60.8 15.3 60.5C16 60.2 16.7 60 17.5 60 17.8 60 18 60.2 18 60.5S17.8 61 17.5 61C16.8 61 16.3 61.2 15.7 61.5 15 61.7 14.3 62 13.5 62 12.6 62 12 61.7 11.3 61.5M32 68.5C32 68.8 31.8 69 31.5 69 30.8 69 30.3 69.2 29.7 69.5 29 69.7 28.3 70 27.5 70 26.6 70 26 69.7 25.3 69.5 24.7 69.3 24.2 69 23.5 69S22.3 69.2 21.7 69.5C21 69.7 20.3 70 19.5 70 18.6 70 18 69.7 17.3 69.5 16.7 69.3 16.2 69 15.5 69 15.2 69 15 68.8 15 68.5S15.2 68 15.5 68C16.3 68 17 68.3 17.7 68.5 18.3 68.7 18.9 69 19.5 69S20.7 68.8 21.3 68.5C22 68.2 22.7 68 23.5 68S25 68.3 25.7 68.5C26.3 68.7 26.9 69 27.5 69S28.7 68.8 29.3 68.5C30 68.2 30.7 68 31.5 68 31.8 68 32 68.2 32 68.5M71 56.1V46.5C71 46.3 70.9 46.2 70.8 46.1S70.5 46 70.4 46L52.6 51 35.7 45C35.5 44.9 35.4 45 35.2 45.1 35.1 45.2 35 45.3 35 45.5V54.8L33 54.1V44.5C33 44.3 32.9 44.1 32.7 44L30 43.1V38L36.8 40.1C34.2 40.8 32.5 40.9 32.4 40.9 32.2 40.9 32 41.1 31.9 41.3S32 41.8 32.2 41.8L52.2 48.8H52.5L73.5 42.8C73.7 42.7 73.9 42.5 73.9 42.3S73.7 41.9 73.5 41.8C73.5 41.8 73.3 41.8 72.9 41.7V39.3C72.9 39 72.7 38.8 72.4 38.8S72 39.2 72 39.5V41.7C68.4 40.9 59.3 38 54.3 29.8 54.7 29.5 55 29.1 55 28.5 55 27.8 54.6 27.3 54 27.1V24.5C54 24.2 53.8 24 53.5 24S53 24.2 53 24.5V27.1C52.4 27.3 52 27.9 52 28.5 52 29 52.3 29.5 52.7 29.8 51.6 31.4 50.4 32.8 49 34 48.1 33.6 43.8 31.5 42 28.4V26.5C42 26.2 41.8 26 41.5 26S41 26.2 41 26.5V28.3C36.2 35.8 26.6 36 26.5 36 26.3 36 26 36.2 26 36.4S26.1 36.9 26.3 36.9L28.9 37.7V43.4C28.9 43.6 29 43.8 29.2 43.9L31.9 44.8V46C30.5 46.2 28.2 46.6 25.8 47 25.5 42.5 24.3 35.5 20.4 29.3L24.1 31.8C24.3 31.9 24.5 31.9 24.6 31.8 24.8 31.7 24.9 31.5 24.9 31.4 24.9 29.8 24.1 28.2 23.5 27.2L26.2 27.9C26.4 27.9 26.5 27.9 26.6 27.8S26.8 27.6 26.8 27.4C26.8 25.2 24.8 23.8 23 22.9H25.3C25.5 22.9 25.7 22.8 25.8 22.6S25.9 22.2 25.7 22.1C25.8 22 23.2 19 19.5 19 17.1 19 15.6 22 15.2 23 13.8 23 9 23.7 9 31.5 9 31.7 9.1 31.9 9.3 32S9.7 32 9.8 31.9L12 29.7C12.1 31.5 12.5 34.7 14.2 35.9 14.3 36 14.5 36 14.7 36 14.9 35.9 15 35.8 15 35.7L15.7 32.8C16.5 33.9 17.9 35.7 19.4 36H19.5C19.6 36 19.7 36 19.8 35.9S20 35.6 20 35.5L19.2 29.4C23.4 35.5 24.6 42.9 24.9 47.3 20 48.3 15 49.8 15 51.5 15 53 17.5 53.7 20.3 54.4 22.2 54.9 25 55.7 25 56.5 25 57 24.4 57.3 23.3 57.6 22.3 57.9 21 58.3 21 59.5 21 62.2 39.2 70 52.5 70 63.6 70 77 64.8 77 61.5 77 58.5 72.3 56.6 71 56.1M54.1 31.3C59.2 38.8 67.6 41.6 71.4 42.6L53.2 47.8C53.5 45.8 54.3 40.3 54.1 31.3M53.5 28C53.8 28 54 28.2 54 28.5S53.8 29 53.5 29 53 28.8 53 28.5 53.2 28 53.5 28M42.1 30.2C44 32.5 46.9 34.1 48.2 34.7 46.2 36.3 44 37.5 42 38.4 42.1 36.9 42.2 33.7 42.1 30.2M53 31C53.3 40.4 52.4 46.1 52.1 47.8L34.6 41.7C38.6 41 47.6 38.5 53 31M29 36.7C32.1 36.2 37.5 34.6 41.1 29.9 41.3 34 41 37.7 41 38.7 40.2 39 39.4 39.3 38.7 39.5zM18.5 27C18.2 27 18 27.2 18 27.5 18 27.6 18.9 34.7 18.9 34.7 17.6 33.9 16.4 32 15.9 31.3 15.8 31.1 15.6 31 15.5 31H15.4C15.2 31 15 31.2 15 31.4L14.2 34.5C13.2 32.9 13 29.8 13 28.5 13 28.3 12.9 28.1 12.7 28S12.3 28 12.2 28.1L10 30.2C10.5 24.4 14.1 24 15.3 24H15.4C15.6 24 15.8 23.9 15.9 23.7 16.3 22.7 17.7 20 19.4 20 21.5 20 23.2 21.2 24.2 22H20.4C20.1 22 19.9 22.2 19.9 22.4 19.9 22.7 20 22.9 20.3 22.9 20.4 22.9 25.1 24.2 25.8 26.8L22.6 26C22.4 25.9 22.2 26 22.1 26.2S22 26.6 22.1 26.8C22.1 26.8 23.5 28.6 23.9 30.5 23.9 30.5 19.2 27 18.5 27M68 47.7L70 47.1V49.1L68 49.7zM68 50.7L70 50.1V56.1L68 56.7zM68 57.7L70 57.1V59.1L68 59.7zM65 48.5L67 47.9V49.9L65 50.5zM65 51.5L67 50.9V56.9L65 57.5zM65 58.5L67 57.9V59.9L65 60.5zM62 49.4L64 48.8V50.8L62 51.4zM62 52.4L64 51.8V57.8L62 58.4zM62 59.4L64 58.8V60.8L62 61.4zM59 50.2L61 49.6V51.6L59 52.2zM59 53.2L61 52.6V58.6L59 59.2zM59 60.2L61 59.6V61.6L59 62.2zM56 51L58 50.4V52.4L56 53zM56 54L58 53.4V59.4L56 60zM56 61L58 60.4V62.4L56 63zM53 51.9L55 51.3V53.3L53 53.9zM53 54.9L55 54.3V60.3L53 60.9zM53 61.9L55 61.3V63.3L53 63.9zM50 51.1L52 51.8V53.7L50 53zM50 54.1L52 54.8V60.7L50 60zM50 61.1L52 61.8V63.8L50 63.1zM39 47.3L49 50.8V59.7L47 59V55C47 52.1 44.9 51 43.5 51 42.3 51 41 51.9 41 54V56.9L39 56.2zM49 60.8V62.8L47 62.1V60.1zM39 57.3L41 58V59.8L39 59.1zM36 46.2L38 46.9V48.9L36 48.2zM36 49.2L38 49.9V55.8L36 55.1zM36 56.2L38 56.9V58.8L36 58.1zM52.5 69C38.9 69 22.3 61.1 22 59.5 22 59 22.6 58.8 23.6 58.5 24.7 58.2 26 57.8 26 56.5 26 54.7 29.5 54 29.6 54 29.9 54 30.1 53.7 30 53.4 30 53.1 29.7 52.9 29.4 53 29.3 53 26.3 53.6 25.3 55.3 24.4 54.5 22.5 54 20.5 53.5 18.7 53 15.9 52.3 15.9 51.5S19.6 49.4 24.9 48.3C25 50.2 24.9 51.4 24.9 51.5 24.9 51.8 25.1 52 25.4 52S25.9 51.8 25.9 51.5C25.9 51.5 26 50.1 25.9 48.1 27.8 47.7 29.8 47.4 31.9 47.1V54.5C31.9 54.7 32 54.9 32.2 55L34.9 55.9V58.5C34.9 58.7 35 58.9 35.2 59L41.2 61H41.3C41.6 61 41.8 60.8 41.8 60.5V54C41.8 52.6 42.6 52 43.3 52 44.2 52 45.8 52.6 45.8 55V62.5C45.8 62.7 45.9 62.9 46.1 62.9L52.1 64.9H52.4L70.4 59.9C70.6 59.8 70.8 59.6 70.8 59.4V57.1C72.6 57.8 75.8 59.4 75.8 61.4 76 63.5 64.3 69 52.5 69M15.5 65C14.8 65 14.3 65.2 13.7 65.5 13 65.7 12.3 66 11.5 66 11.2 66 11 65.8 11 65.5S11.2 65 11.5 65C12.1 65 12.7 64.8 13.3 64.5 14 64.2 14.7 64 15.5 64S17 64.3 17.7 64.5C18.3 64.7 18.9 65 19.5 65S20.7 64.8 21.3 64.5C22 64.2 22.7 64 23.5 64 23.8 64 24 64.2 24 64.5S23.8 65 23.5 65C22.8 65 22.3 65.2 21.7 65.5 21 65.7 20.3 66 19.5 66 18.6 66 18 65.7 17.3 65.5 16.7 65.2 16.1 65 15.5 65" fill="#b49062" data-fill-palette-color="accent"></path></svg></g></svg></g><g></g></svg></g></svg></g></svg></g><defs></defs></svg><rect width="395.52" height="211.8400273140823" fill="none" stroke="none" visibility="hidden"></rect></g></svg></g></svg>